<svg xmlns="http://www.w3.org/2000/svg" xmlns:xlink="http://www.w3.org/1999/xlink" width="1080" zoomAndPan="magnify" viewBox="0 0 810 809.999993" height="1080" preserveAspectRatio="xMidYMid meet" version="1.0"><defs><g/><clipPath id="b922ecdfd3"><path d="M 653 0.558594 L 676 0.558594 L 676 101 L 653 101 Z M 653 0.558594 " clip-rule="nonzero"/></clipPath><clipPath id="ae44e5bdf5"><rect x="0" width="801" y="0" height="127"/></clipPath></defs><g transform="matrix(1, 0, 0, 1, 9, 334)"><g clip-path="url(#ae44e5bdf5)"><g fill="#000000" fill-opacity="1"><g transform="translate(16.970635, 100.776073)"><g><path d="M -9.75 14.8125 C -11.644531 14.8125 -13.101562 14.625 -14.125 14.25 C -15.15625 13.882812 -15.671875 12.960938 -15.671875 11.484375 C -15.671875 10.003906 -14.992188 8.519531 -13.640625 7.03125 C -12.285156 5.550781 -10.375 4.8125 -7.90625 4.8125 C -6.257812 4.8125 -4.507812 4.992188 -2.65625 5.359375 C -0.800781 5.734375 2.054688 6.332031 5.921875 7.15625 C 6.742188 6.582031 7.566406 5.800781 8.390625 4.8125 C 9.210938 3.820312 9.910156 2.253906 10.484375 0.109375 C 11.066406 -2.023438 11.359375 -5.066406 11.359375 -9.015625 L 11.359375 -70.734375 C 11.359375 -75.179688 11.046875 -78.453125 10.421875 -80.546875 C 9.804688 -82.648438 8.472656 -84.03125 6.421875 -84.6875 L 6.421875 -86.421875 L 29.265625 -86.421875 L 29.265625 -84.6875 C 27.203125 -84.03125 25.859375 -82.648438 25.234375 -80.546875 C 24.617188 -78.453125 24.3125 -75.179688 24.3125 -70.734375 L 24.3125 -30 C 24.3125 -23.5 23.382812 -17.53125 21.53125 -12.09375 C 19.6875 -6.664062 17.160156 -1.9375 13.953125 2.09375 C 10.742188 6.125 7.097656 9.25 3.015625 11.46875 C -1.054688 13.695312 -5.3125 14.8125 -9.75 14.8125 Z M -9.75 14.8125 "/></g></g></g><g fill="#000000" fill-opacity="1"><g transform="translate(52.029691, 100.776073)"><g><path d="M 25.921875 1.234375 C 19.421875 1.234375 14.707031 -0.738281 11.78125 -4.6875 C 8.863281 -8.632812 7.40625 -14.351562 7.40625 -21.84375 L 7.40625 -44.078125 C 7.40625 -47.691406 6.972656 -50.078125 6.109375 -51.234375 C 5.242188 -52.390625 4.03125 -53.296875 2.46875 -53.953125 L 2.46875 -55.671875 L 18.765625 -62.84375 L 20 -61.84375 L 20 -23.453125 C 20 -16.867188 20.738281 -11.929688 22.21875 -8.640625 C 23.695312 -5.347656 26.828125 -3.703125 31.609375 -3.703125 C 34.398438 -3.703125 37.273438 -4.503906 40.234375 -6.109375 C 43.203125 -7.710938 46.207031 -10.039062 49.25 -13.09375 L 49.25 -44.078125 C 49.25 -47.691406 48.816406 -50.078125 47.953125 -51.234375 C 47.097656 -52.390625 45.882812 -53.296875 44.3125 -53.953125 L 44.3125 -55.671875 L 60.609375 -62.84375 L 61.84375 -61.84375 L 61.84375 -15.671875 C 61.84375 -11.234375 62.148438 -7.960938 62.765625 -5.859375 C 63.390625 -3.765625 64.726562 -2.390625 66.78125 -1.734375 L 66.78125 0 L 54.203125 0 C 50.898438 0 49.25 -1.644531 49.25 -4.9375 L 49.25 -10.5 C 45.71875 -7.125 41.914062 -4.320312 37.84375 -2.09375 C 33.769531 0.125 29.796875 1.234375 25.921875 1.234375 Z M 25.921875 1.234375 "/></g></g></g><g fill="#000000" fill-opacity="1"><g transform="translate(122.518163, 100.776073)"><g><path d="M 3.453125 0 L 3.453125 -1.734375 C 5.515625 -2.390625 6.851562 -3.765625 7.46875 -5.859375 C 8.082031 -7.960938 8.390625 -11.234375 8.390625 -15.671875 L 8.390625 -44.078125 C 8.390625 -47.691406 7.957031 -50.078125 7.09375 -51.234375 C 6.226562 -52.390625 5.015625 -53.296875 3.453125 -53.953125 L 3.453125 -55.671875 L 19.75 -62.84375 L 20.984375 -61.84375 L 20.984375 -51.484375 C 24.359375 -54.273438 28.226562 -56.820312 32.59375 -59.125 C 36.957031 -61.4375 41.523438 -62.59375 46.296875 -62.59375 C 51.972656 -62.59375 56.5625 -61.003906 60.0625 -57.828125 C 63.5625 -54.660156 65.3125 -49.457031 65.3125 -42.21875 L 65.3125 -15.671875 C 65.3125 -11.234375 65.617188 -7.960938 66.234375 -5.859375 C 66.847656 -3.765625 68.1875 -2.390625 70.25 -1.734375 L 70.25 0 L 47.78125 0 L 47.78125 -1.734375 C 49.832031 -2.390625 51.164062 -3.765625 51.78125 -5.859375 C 52.40625 -7.960938 52.71875 -11.234375 52.71875 -15.671875 L 52.71875 -40 C 52.71875 -45.59375 51.539062 -49.929688 49.1875 -53.015625 C 46.84375 -56.109375 43.367188 -57.65625 38.765625 -57.65625 C 35.878906 -57.65625 33.035156 -56.953125 30.234375 -55.546875 C 27.441406 -54.148438 24.359375 -52.09375 20.984375 -49.375 L 20.984375 -15.671875 C 20.984375 -11.234375 21.289062 -7.960938 21.90625 -5.859375 C 22.53125 -3.765625 23.867188 -2.390625 25.921875 -1.734375 L 25.921875 0 Z M 3.453125 0 "/></g></g></g><g fill="#000000" fill-opacity="1"><g transform="translate(195.228678, 100.776073)"><g><path d="M 23.203125 1.234375 C 19.003906 1.234375 15.816406 -0.203125 13.640625 -3.078125 C 11.460938 -5.960938 10.375 -10.738281 10.375 -17.40625 L 10.375 -59.75 L 2.46875 -59.75 L 2.46875 -61.734375 L 20.984375 -78.015625 L 22.96875 -78.015625 L 22.96875 -61.734375 L 42.09375 -61.734375 L 41.609375 -59.75 L 22.96875 -59.75 L 22.96875 -17.28125 C 22.96875 -13.5 23.664062 -10.722656 25.0625 -8.953125 C 26.457031 -7.179688 28.515625 -6.296875 31.234375 -6.296875 C 32.628906 -6.296875 34.296875 -6.6875 36.234375 -7.46875 C 38.171875 -8.25 40.164062 -9.914062 42.21875 -12.46875 L 43.453125 -11.234375 C 40.160156 -7.453125 36.890625 -4.425781 33.640625 -2.15625 C 30.390625 0.101562 26.910156 1.234375 23.203125 1.234375 Z M 23.203125 1.234375 "/></g></g></g><g fill="#000000" fill-opacity="1"><g transform="translate(237.694535, 100.776073)"><g><path d="M 33.078125 1.234375 C 29.628906 1.234375 26.195312 0.617188 22.78125 -0.609375 C 19.363281 -1.847656 16.210938 -3.703125 13.328125 -6.171875 C 10.453125 -8.640625 8.148438 -11.722656 6.421875 -15.421875 C 4.691406 -19.128906 3.828125 -23.492188 3.828125 -28.515625 C 3.828125 -33.785156 4.75 -38.519531 6.59375 -42.71875 C 8.445312 -46.914062 10.9375 -50.492188 14.0625 -53.453125 C 17.195312 -56.421875 20.675781 -58.6875 24.5 -60.25 C 28.332031 -61.8125 32.265625 -62.59375 36.296875 -62.59375 C 41.890625 -62.59375 46.578125 -61.476562 50.359375 -59.25 C 54.148438 -57.03125 57.007812 -54.234375 58.9375 -50.859375 C 60.875 -47.484375 61.84375 -43.988281 61.84375 -40.375 L 15.0625 -40.375 C 14.976562 -39.707031 14.914062 -39.046875 14.875 -38.390625 C 14.832031 -37.734375 14.8125 -37.078125 14.8125 -36.421875 C 14.8125 -31.066406 15.859375 -26.289062 17.953125 -22.09375 C 20.054688 -17.894531 23.019531 -14.625 26.84375 -12.28125 C 30.675781 -9.9375 35.1875 -8.765625 40.375 -8.765625 C 44.976562 -8.765625 49.050781 -9.671875 52.59375 -11.484375 C 56.132812 -13.296875 59.179688 -15.640625 61.734375 -18.515625 L 62.84375 -17.28125 C 60.945312 -14.40625 58.597656 -11.546875 55.796875 -8.703125 C 53.003906 -5.859375 49.710938 -3.488281 45.921875 -1.59375 C 42.140625 0.289062 37.859375 1.234375 33.078125 1.234375 Z M 15.1875 -42.09375 L 49.375 -42.09375 C 48.882812 -45.46875 47.835938 -48.535156 46.234375 -51.296875 C 44.628906 -54.054688 42.648438 -56.257812 40.296875 -57.90625 C 37.953125 -59.550781 35.34375 -60.375 32.46875 -60.375 C 29.007812 -60.445312 26.085938 -59.617188 23.703125 -57.890625 C 21.316406 -56.171875 19.421875 -53.910156 18.015625 -51.109375 C 16.617188 -48.304688 15.675781 -45.300781 15.1875 -42.09375 Z M 15.1875 -42.09375 "/></g></g></g><g fill="#000000" fill-opacity="1"><g transform="translate(303.615466, 100.776073)"><g><path d="M 6.421875 -29.75 L 6.421875 -31.734375 L 38.640625 -31.734375 L 38.640625 -29.75 Z M 6.421875 -29.75 "/></g></g></g><g fill="#000000" fill-opacity="1"><g transform="translate(348.67377, 100.776073)"><g><path d="M 27.28125 0.984375 C 22.757812 0.984375 18.519531 0.410156 14.5625 -0.734375 C 10.613281 -1.890625 7.445312 -3.25 5.0625 -4.8125 L 3.828125 -20.984375 L 5.0625 -21.234375 C 7.695312 -15.304688 11.171875 -10.46875 15.484375 -6.71875 C 19.804688 -2.976562 24.726562 -1.066406 30.25 -0.984375 C 34.113281 -0.898438 37.175781 -1.945312 39.4375 -4.125 C 41.707031 -6.3125 42.84375 -8.804688 42.84375 -11.609375 C 42.84375 -15.554688 41.335938 -18.515625 38.328125 -20.484375 C 35.328125 -22.460938 31.148438 -24.273438 25.796875 -25.921875 C 21.515625 -27.242188 17.789062 -28.625 14.625 -30.0625 C 11.457031 -31.5 9.03125 -33.347656 7.34375 -35.609375 C 5.65625 -37.878906 4.8125 -40.863281 4.8125 -44.5625 C 4.8125 -47.6875 5.65625 -50.628906 7.34375 -53.390625 C 9.03125 -56.148438 11.644531 -58.375 15.1875 -60.0625 C 18.726562 -61.75 23.296875 -62.59375 28.890625 -62.59375 C 32.429688 -62.59375 35.925781 -62.300781 39.375 -61.71875 C 42.832031 -61.144531 45.59375 -60.40625 47.65625 -59.5 L 48.265625 -45.921875 L 46.78125 -45.671875 C 44.726562 -50.035156 41.867188 -53.65625 38.203125 -56.53125 C 34.546875 -59.414062 30.453125 -60.859375 25.921875 -60.859375 C 22.054688 -60.859375 18.953125 -59.953125 16.609375 -58.140625 C 14.265625 -56.335938 13.09375 -54.117188 13.09375 -51.484375 C 13.09375 -48.023438 14.59375 -45.367188 17.59375 -43.515625 C 20.59375 -41.660156 24.851562 -39.789062 30.375 -37.90625 C 33.664062 -36.832031 36.894531 -35.632812 40.0625 -34.3125 C 43.226562 -33 45.859375 -31.171875 47.953125 -28.828125 C 50.054688 -26.484375 51.109375 -23.210938 51.109375 -19.015625 C 51.109375 -15.890625 50.367188 -12.78125 48.890625 -9.6875 C 47.410156 -6.601562 44.941406 -4.050781 41.484375 -2.03125 C 38.023438 -0.0195312 33.289062 0.984375 27.28125 0.984375 Z M 27.28125 0.984375 "/></g></g></g><g fill="#000000" fill-opacity="1"><g transform="translate(403.978193, 100.776073)"><g><path d="M 33.078125 1.234375 C 29.628906 1.234375 26.195312 0.617188 22.78125 -0.609375 C 19.363281 -1.847656 16.210938 -3.703125 13.328125 -6.171875 C 10.453125 -8.640625 8.148438 -11.722656 6.421875 -15.421875 C 4.691406 -19.128906 3.828125 -23.492188 3.828125 -28.515625 C 3.828125 -33.785156 4.75 -38.519531 6.59375 -42.71875 C 8.445312 -46.914062 10.9375 -50.492188 14.0625 -53.453125 C 17.195312 -56.421875 20.675781 -58.6875 24.5 -60.25 C 28.332031 -61.8125 32.265625 -62.59375 36.296875 -62.59375 C 41.890625 -62.59375 46.578125 -61.476562 50.359375 -59.25 C 54.148438 -57.03125 57.007812 -54.234375 58.9375 -50.859375 C 60.875 -47.484375 61.84375 -43.988281 61.84375 -40.375 L 15.0625 -40.375 C 14.976562 -39.707031 14.914062 -39.046875 14.875 -38.390625 C 14.832031 -37.734375 14.8125 -37.078125 14.8125 -36.421875 C 14.8125 -31.066406 15.859375 -26.289062 17.953125 -22.09375 C 20.054688 -17.894531 23.019531 -14.625 26.84375 -12.28125 C 30.675781 -9.9375 35.1875 -8.765625 40.375 -8.765625 C 44.976562 -8.765625 49.050781 -9.671875 52.59375 -11.484375 C 56.132812 -13.296875 59.179688 -15.640625 61.734375 -18.515625 L 62.84375 -17.28125 C 60.945312 -14.40625 58.597656 -11.546875 55.796875 -8.703125 C 53.003906 -5.859375 49.710938 -3.488281 45.921875 -1.59375 C 42.140625 0.289062 37.859375 1.234375 33.078125 1.234375 Z M 15.1875 -42.09375 L 49.375 -42.09375 C 48.882812 -45.46875 47.835938 -48.535156 46.234375 -51.296875 C 44.628906 -54.054688 42.648438 -56.257812 40.296875 -57.90625 C 37.953125 -59.550781 35.34375 -60.375 32.46875 -60.375 C 29.007812 -60.445312 26.085938 -59.617188 23.703125 -57.890625 C 21.316406 -56.171875 19.421875 -53.910156 18.015625 -51.109375 C 16.617188 -48.304688 15.675781 -45.300781 15.1875 -42.09375 Z M 15.1875 -42.09375 "/></g></g></g><g fill="#000000" fill-opacity="1"><g transform="translate(469.899109, 100.776073)"><g/></g></g><g fill="#000000" fill-opacity="1"><g transform="translate(494.588603, 100.776073)"><g><path d="M 50.609375 0 C 47.316406 0 45.671875 -1.644531 45.671875 -4.9375 L 45.671875 -25.3125 C 44.523438 -20.53125 42.796875 -16.125 40.484375 -12.09375 C 38.179688 -8.0625 35.34375 -4.832031 31.96875 -2.40625 C 28.59375 0.0195312 24.769531 1.234375 20.5 1.234375 C 15.96875 1.234375 12.035156 -0.160156 8.703125 -2.953125 C 5.367188 -5.753906 3.703125 -9.75 3.703125 -14.9375 C 3.703125 -19.21875 5 -22.691406 7.59375 -25.359375 C 10.1875 -28.035156 13.617188 -30.28125 17.890625 -32.09375 C 22.171875 -33.90625 26.863281 -35.507812 31.96875 -36.90625 L 45.671875 -40.859375 C 45.585938 -46.953125 44.046875 -51.296875 41.046875 -53.890625 C 38.046875 -56.484375 34.238281 -57.78125 29.625 -57.78125 C 26.164062 -57.78125 22.75 -56.976562 19.375 -55.375 C 16.007812 -53.769531 12.757812 -51.070312 9.625 -47.28125 L 8.390625 -48.390625 C 11.847656 -52.671875 15.921875 -56.109375 20.609375 -58.703125 C 25.304688 -61.296875 30.453125 -62.59375 36.046875 -62.59375 C 43.535156 -62.59375 49.066406 -60.632812 52.640625 -56.71875 C 56.222656 -52.8125 58.015625 -47.070312 58.015625 -39.5 L 58.015625 -15.671875 C 58.015625 -11.234375 58.320312 -7.960938 58.9375 -5.859375 C 59.5625 -3.765625 60.90625 -2.390625 62.96875 -1.734375 L 62.96875 0 Z M 15.1875 -19.265625 C 15.1875 -15.222656 16.398438 -12.296875 18.828125 -10.484375 C 21.253906 -8.679688 23.867188 -7.78125 26.671875 -7.78125 C 29.710938 -7.78125 32.40625 -8.703125 34.75 -10.546875 C 37.09375 -12.398438 39.066406 -14.785156 40.671875 -17.703125 C 42.273438 -20.628906 43.507812 -23.695312 44.375 -26.90625 C 45.238281 -30.125 45.671875 -33.128906 45.671875 -35.921875 L 45.671875 -39.140625 L 32.46875 -35.3125 C 30.988281 -34.894531 29.28125 -34.296875 27.34375 -33.515625 C 25.40625 -32.734375 23.507812 -31.722656 21.65625 -30.484375 C 19.8125 -29.253906 18.269531 -27.710938 17.03125 -25.859375 C 15.800781 -24.003906 15.1875 -21.804688 15.1875 -19.265625 Z M 15.1875 -19.265625 "/></g></g></g><g fill="#000000" fill-opacity="1"><g transform="translate(560.015686, 100.776073)"><g/></g></g><g fill="#000000" fill-opacity="1"><g transform="translate(584.70521, 100.776073)"><g><path d="M 33.078125 1.234375 C 29.628906 1.234375 26.195312 0.617188 22.78125 -0.609375 C 19.363281 -1.847656 16.210938 -3.703125 13.328125 -6.171875 C 10.453125 -8.640625 8.148438 -11.722656 6.421875 -15.421875 C 4.691406 -19.128906 3.828125 -23.492188 3.828125 -28.515625 C 3.828125 -33.785156 4.75 -38.519531 6.59375 -42.71875 C 8.445312 -46.914062 10.9375 -50.492188 14.0625 -53.453125 C 17.195312 -56.421875 20.675781 -58.6875 24.5 -60.25 C 28.332031 -61.8125 32.265625 -62.59375 36.296875 -62.59375 C 41.890625 -62.59375 46.578125 -61.476562 50.359375 -59.25 C 54.148438 -57.03125 57.007812 -54.234375 58.9375 -50.859375 C 60.875 -47.484375 61.84375 -43.988281 61.84375 -40.375 L 15.0625 -40.375 C 14.976562 -39.707031 14.914062 -39.046875 14.875 -38.390625 C 14.832031 -37.734375 14.8125 -37.078125 14.8125 -36.421875 C 14.8125 -31.066406 15.859375 -26.289062 17.953125 -22.09375 C 20.054688 -17.894531 23.019531 -14.625 26.84375 -12.28125 C 30.675781 -9.9375 35.1875 -8.765625 40.375 -8.765625 C 44.976562 -8.765625 49.050781 -9.671875 52.59375 -11.484375 C 56.132812 -13.296875 59.179688 -15.640625 61.734375 -18.515625 L 62.84375 -17.28125 C 60.945312 -14.40625 58.597656 -11.546875 55.796875 -8.703125 C 53.003906 -5.859375 49.710938 -3.488281 45.921875 -1.59375 C 42.140625 0.289062 37.859375 1.234375 33.078125 1.234375 Z M 15.1875 -42.09375 L 49.375 -42.09375 C 48.882812 -45.46875 47.835938 -48.535156 46.234375 -51.296875 C 44.628906 -54.054688 42.648438 -56.257812 40.296875 -57.90625 C 37.953125 -59.550781 35.34375 -60.375 32.46875 -60.375 C 29.007812 -60.445312 26.085938 -59.617188 23.703125 -57.890625 C 21.316406 -56.171875 19.421875 -53.910156 18.015625 -51.109375 C 16.617188 -48.304688 15.675781 -45.300781 15.1875 -42.09375 Z M 15.1875 -42.09375 "/></g></g></g><g clip-path="url(#b922ecdfd3)"><g fill="#000000" fill-opacity="1"><g transform="translate(649.391602, 100.776073)"><g><path d="M 3.703125 0 L 3.703125 -1.734375 C 5.765625 -2.390625 7.101562 -3.765625 7.71875 -5.859375 C 8.332031 -7.960938 8.640625 -11.234375 8.640625 -15.671875 L 8.640625 -81.109375 C 8.640625 -84.734375 8.207031 -87.117188 7.34375 -88.265625 C 6.476562 -89.421875 5.265625 -90.328125 3.703125 -90.984375 L 3.703125 -92.71875 L 20 -99.875 L 21.234375 -98.890625 L 21.234375 -15.671875 C 21.234375 -11.234375 21.539062 -7.960938 22.15625 -5.859375 C 22.769531 -3.765625 24.109375 -2.390625 26.171875 -1.734375 L 26.171875 0 Z M 3.703125 0 "/></g></g></g></g><g fill="#000000" fill-opacity="1"><g transform="translate(679.759673, 100.776073)"><g><path d="M 33.078125 1.234375 C 29.628906 1.234375 26.195312 0.617188 22.78125 -0.609375 C 19.363281 -1.847656 16.210938 -3.703125 13.328125 -6.171875 C 10.453125 -8.640625 8.148438 -11.722656 6.421875 -15.421875 C 4.691406 -19.128906 3.828125 -23.492188 3.828125 -28.515625 C 3.828125 -33.785156 4.75 -38.519531 6.59375 -42.71875 C 8.445312 -46.914062 10.9375 -50.492188 14.0625 -53.453125 C 17.195312 -56.421875 20.675781 -58.6875 24.5 -60.25 C 28.332031 -61.8125 32.265625 -62.59375 36.296875 -62.59375 C 41.890625 -62.59375 46.578125 -61.476562 50.359375 -59.25 C 54.148438 -57.03125 57.007812 -54.234375 58.9375 -50.859375 C 60.875 -47.484375 61.84375 -43.988281 61.84375 -40.375 L 15.0625 -40.375 C 14.976562 -39.707031 14.914062 -39.046875 14.875 -38.390625 C 14.832031 -37.734375 14.8125 -37.078125 14.8125 -36.421875 C 14.8125 -31.066406 15.859375 -26.289062 17.953125 -22.09375 C 20.054688 -17.894531 23.019531 -14.625 26.84375 -12.28125 C 30.675781 -9.9375 35.1875 -8.765625 40.375 -8.765625 C 44.976562 -8.765625 49.050781 -9.671875 52.59375 -11.484375 C 56.132812 -13.296875 59.179688 -15.640625 61.734375 -18.515625 L 62.84375 -17.28125 C 60.945312 -14.40625 58.597656 -11.546875 55.796875 -8.703125 C 53.003906 -5.859375 49.710938 -3.488281 45.921875 -1.59375 C 42.140625 0.289062 37.859375 1.234375 33.078125 1.234375 Z M 15.1875 -42.09375 L 49.375 -42.09375 C 48.882812 -45.46875 47.835938 -48.535156 46.234375 -51.296875 C 44.628906 -54.054688 42.648438 -56.257812 40.296875 -57.90625 C 37.953125 -59.550781 35.34375 -60.375 32.46875 -60.375 C 29.007812 -60.445312 26.085938 -59.617188 23.703125 -57.890625 C 21.316406 -56.171875 19.421875 -53.910156 18.015625 -51.109375 C 16.617188 -48.304688 15.675781 -45.300781 15.1875 -42.09375 Z M 15.1875 -42.09375 "/></g></g></g><g fill="#000000" fill-opacity="1"><g transform="translate(745.68059, 100.776073)"><g><path d="M 27.28125 0.984375 C 22.757812 0.984375 18.519531 0.410156 14.5625 -0.734375 C 10.613281 -1.890625 7.445312 -3.25 5.0625 -4.8125 L 3.828125 -20.984375 L 5.0625 -21.234375 C 7.695312 -15.304688 11.171875 -10.46875 15.484375 -6.71875 C 19.804688 -2.976562 24.726562 -1.066406 30.25 -0.984375 C 34.113281 -0.898438 37.175781 -1.945312 39.4375 -4.125 C 41.707031 -6.3125 42.84375 -8.804688 42.84375 -11.609375 C 42.84375 -15.554688 41.335938 -18.515625 38.328125 -20.484375 C 35.328125 -22.460938 31.148438 -24.273438 25.796875 -25.921875 C 21.515625 -27.242188 17.789062 -28.625 14.625 -30.0625 C 11.457031 -31.5 9.03125 -33.347656 7.34375 -35.609375 C 5.65625 -37.878906 4.8125 -40.863281 4.8125 -44.5625 C 4.8125 -47.6875 5.65625 -50.628906 7.34375 -53.390625 C 9.03125 -56.148438 11.644531 -58.375 15.1875 -60.0625 C 18.726562 -61.75 23.296875 -62.59375 28.890625 -62.59375 C 32.429688 -62.59375 35.925781 -62.300781 39.375 -61.71875 C 42.832031 -61.144531 45.59375 -60.40625 47.65625 -59.5 L 48.265625 -45.921875 L 46.78125 -45.671875 C 44.726562 -50.035156 41.867188 -53.65625 38.203125 -56.53125 C 34.546875 -59.414062 30.453125 -60.859375 25.921875 -60.859375 C 22.054688 -60.859375 18.953125 -59.953125 16.609375 -58.140625 C 14.265625 -56.335938 13.09375 -54.117188 13.09375 -51.484375 C 13.09375 -48.023438 14.59375 -45.367188 17.59375 -43.515625 C 20.59375 -41.660156 24.851562 -39.789062 30.375 -37.90625 C 33.664062 -36.832031 36.894531 -35.632812 40.0625 -34.3125 C 43.226562 -33 45.859375 -31.171875 47.953125 -28.828125 C 50.054688 -26.484375 51.109375 -23.210938 51.109375 -19.015625 C 51.109375 -15.890625 50.367188 -12.78125 48.890625 -9.6875 C 47.410156 -6.601562 44.941406 -4.050781 41.484375 -2.03125 C 38.023438 -0.0195312 33.289062 0.984375 27.28125 0.984375 Z M 27.28125 0.984375 "/></g></g></g></g></g></svg>